<svg width="56" height="49" viewBox="0 0 56 49" fill="none" xmlns="http://www.w3.org/2000/svg">
<path d="M56 6.69333V44.5451C56 47.0052 54.292 48.9973 52.1827 48.9973H43.2717V23.7646L28 37.1266L12.7283 23.7646V49H3.81733C3.31584 49 2.81926 48.8848 2.35596 48.6608C1.89267 48.4369 1.47175 48.1087 1.11725 47.695C0.762744 47.2813 0.48161 46.7902 0.289908 46.2497C0.0982062 45.7092 -0.000305825 45.13 7.13187e-07 44.5451V6.69333C7.13187e-07 1.18797 5.38767 -1.95523 9.163 1.34853L12.7283 4.46996L28 17.8265L43.2717 4.46452L46.837 1.34853C50.61 -1.95251 56 1.18797 56 6.69333Z" fill="#B8B6B7"/>
</svg>
