<svg width="29" height="27" viewBox="0 0 29 27" fill="none" xmlns="http://www.w3.org/2000/svg">
<path d="M28.1813 0.785677C27.456 0.0926074 26.3826 -0.165595 25.3817 0.106197L2.04159 6.42536C0.985563 6.69851 0.237056 7.48263 0.0354237 8.47875C-0.170561 9.49253 0.548934 10.7795 1.48892 11.3176L8.78686 15.4937C9.53536 15.9218 10.5015 15.8144 11.1209 15.2328L19.4777 7.40381C19.8984 6.99612 20.5947 6.99612 21.0154 7.40381C21.436 7.79791 21.436 8.43662 21.0154 8.84431L12.644 16.6746C12.0231 17.2549 11.9071 18.1586 12.364 18.8598L16.8231 25.7226C17.3454 26.538 18.2447 27 19.2311 27C19.3472 27 19.4777 27 19.5938 26.9864C20.7252 26.8505 21.6246 26.1303 21.9582 25.111L28.8776 3.40847C29.1822 2.48438 28.9066 1.47875 28.1813 0.785677Z" fill="#6E6D7E"/>
</svg>
