<svg width="35" height="31" viewBox="0 0 35 31" fill="none" xmlns="http://www.w3.org/2000/svg">
<g clip-path="url(#clip0_3_55)">
<path d="M14.6333 19.815C16.6896 19.815 18.3375 21.2888 18.3375 23.123V27.5263C18.3375 29.3475 16.6896 30.8329 14.6333 30.8329H9.70417C7.6625 30.8329 6 29.3475 6 27.5263V23.123C6 21.2888 7.6625 19.815 9.70417 19.815H14.6333ZM31.4626 19.815C33.5043 19.815 35.1668 21.2888 35.1668 23.123V27.5263C35.1668 29.3475 33.5043 30.8329 31.4626 30.8329H26.5335C24.4772 30.8329 22.8293 29.3475 22.8293 27.5263V23.123C22.8293 21.2888 24.4772 19.815 26.5335 19.815H31.4626ZM14.6333 5C16.6896 5 18.3375 6.48542 18.3375 8.30796V12.7112C18.3375 14.5454 16.6896 16.0179 14.6333 16.0179H9.70417C7.6625 16.0179 6 14.5454 6 12.7112V8.30796C6 6.48542 7.6625 5 9.70417 5H14.6333ZM31.4626 5C33.5043 5 35.1668 6.48542 35.1668 8.30796V12.7112C35.1668 14.5454 33.5043 16.0179 31.4626 16.0179H26.5335C24.4772 16.0179 22.8293 14.5454 22.8293 12.7112V8.30796C22.8293 6.48542 24.4772 5 26.5335 5H31.4626Z" fill="#FFFDFD"/>
</g>
<defs>
<clipPath id="clip0_3_55">
<rect width="35" height="31" fill="white"/>
</clipPath>
</defs>
</svg>
