<svg width="74" height="73" viewBox="0 0 74 73" fill="none" xmlns="http://www.w3.org/2000/svg">
<path d="M54.242 0C66.822 0 74 7.008 74 19.4545V53.5455C74 65.919 66.859 73 54.279 73H19.721C7.104 73 0 65.919 0 53.5455V19.4545C0 7.008 7.104 0 19.721 0H54.242ZM36.963 20.1115C35.261 20.1115 33.892 21.462 33.892 23.141V33.434H23.421C22.607 33.434 21.83 33.7625 21.238 34.31C20.683 34.894 20.35 35.6568 20.35 36.4635C20.35 38.1425 21.719 39.493 23.421 39.5295H33.892V49.859C33.892 51.538 35.261 52.8885 36.963 52.8885C38.665 52.8885 40.034 51.538 40.034 49.859V39.5295H50.542C52.244 39.493 53.613 38.1425 53.613 36.4635C53.613 34.7845 52.244 33.434 50.542 33.434H40.034V23.141C40.034 21.462 38.665 20.1115 36.963 20.1115Z" fill="#373643"/>
</svg>
