<svg width="37" height="30" viewBox="0 0 37 30" fill="none" xmlns="http://www.w3.org/2000/svg">
<path d="M18.4143 19.7618C24.1849 19.7618 29.1122 20.7817 29.1122 24.8632C29.1122 28.9429 24.2165 30 18.4143 30C12.6436 30 7.71633 28.9801 7.71633 24.9003C7.71633 20.8189 12.612 19.7618 18.4143 19.7618ZM27.6408 17.3041C29.847 17.2586 32.2188 17.5963 33.0952 17.8361C34.952 18.243 36.1733 19.0738 36.6792 20.2812C37.1069 21.2724 37.1069 22.4224 36.6792 23.4119C35.9052 25.2846 33.4099 25.8858 32.4401 26.0412C32.2398 26.0749 32.0787 25.8807 32.0998 25.6561C32.5952 20.467 28.6543 18.0066 27.6348 17.4409C27.5911 17.4156 27.5821 17.3768 27.5866 17.3531C27.5896 17.3362 27.6077 17.3092 27.6408 17.3041ZM9.36033 17.3048C9.39346 17.3099 9.41002 17.3369 9.41303 17.3521C9.41755 17.3774 9.40851 17.4146 9.36635 17.4416C8.34535 18.0073 4.40439 20.4676 4.89984 25.6551C4.92092 25.8814 4.76129 26.0739 4.56101 26.0418C3.59121 25.8865 1.09592 25.2853 0.321887 23.4126C-0.107296 22.4214 -0.107296 21.2731 0.321887 20.2819C0.827871 19.0745 2.04765 18.2437 3.90443 17.8351C4.78238 17.597 7.15267 17.2592 9.36033 17.3048ZM18.4143 0C22.3432 0 25.4935 3.52925 25.4935 7.9366C25.4935 12.3423 22.3432 15.8749 18.4143 15.8749C14.4854 15.8749 11.335 12.3423 11.335 7.9366C11.335 3.52925 14.4854 0 18.4143 0ZM28.0248 1.32355C31.8197 1.32355 34.7999 5.32731 33.7849 9.78701C33.0997 12.7894 30.6195 14.7837 27.8561 14.7026C27.5791 14.6942 27.3065 14.6655 27.043 14.6148C26.8517 14.5777 26.7553 14.3362 26.8638 14.1572C27.9179 12.4179 28.5187 10.3257 28.5187 8.07979C28.5187 5.73596 27.8622 3.55087 26.7222 1.75922C26.6861 1.7035 26.659 1.61738 26.6951 1.55321C26.7252 1.50086 26.7809 1.47384 26.8336 1.46033C27.2176 1.37252 27.6122 1.32355 28.0248 1.32355ZM8.97406 1.32339C9.38668 1.32339 9.78123 1.37236 10.1667 1.46017C10.2179 1.47367 10.2752 1.50238 10.3053 1.55304C10.3399 1.61721 10.3143 1.70333 10.2782 1.75905C9.1382 3.5507 8.48163 5.7358 8.48163 8.07962C8.48163 10.3255 9.08249 12.4177 10.1366 14.157C10.245 14.336 10.1487 14.5775 9.95742 14.6147C9.69238 14.667 9.42132 14.694 9.14423 14.7025C6.38089 14.7835 3.90067 12.7892 3.21548 9.78684C2.199 5.32715 5.17918 1.32339 8.97406 1.32339Z" fill="#8B8E95"/>
</svg>
