<svg width="31" height="30" viewBox="0 0 31 30" fill="none" xmlns="http://www.w3.org/2000/svg">
<path d="M11.625 19.7608C17.9285 19.7608 23.25 20.8174 23.25 24.898C23.25 28.9786 17.8944 30 11.625 30C5.32147 30 0 28.9418 0 24.8628C0 20.7822 5.35405 19.7608 11.625 19.7608ZM26.3484 7.89474C27.1176 7.89474 27.7418 8.54123 27.7418 9.33413V11.1914H29.6066C30.3742 11.1914 31 11.8379 31 12.6308C31 13.4237 30.3742 14.0702 29.6066 14.0702H27.7418V15.929C27.7418 16.7219 27.1176 17.3684 26.3484 17.3684C25.5808 17.3684 24.955 16.7219 24.955 15.929V14.0702H23.0934C22.3242 14.0702 21.7 13.4237 21.7 12.6308C21.7 11.8379 22.3242 11.1914 23.0934 11.1914H24.955V9.33413C24.955 8.54123 25.5808 7.89474 26.3484 7.89474ZM11.625 0C15.8946 0 19.3171 3.53152 19.3171 7.93712C19.3171 12.3427 15.8946 15.8742 11.625 15.8742C7.35541 15.8742 3.93292 12.3427 3.93292 7.93712C3.93292 3.53152 7.35541 0 11.625 0Z" fill="#8B8E95"/>
</svg>
