<svg width="19" height="21" viewBox="0 0 19 21" fill="none" xmlns="http://www.w3.org/2000/svg">
<path d="M9.519 0C14.915 0 19 4.88983 19 10.4842C19 16.9725 14.212 21 9.5 21C7.942 21 6.213 20.5373 4.826 19.6329C4.3415 19.307 3.933 19.0651 3.4105 19.2544L1.4915 19.8853C1.007 20.0536 0.57 19.6329 0.7125 19.0651L1.349 16.7096C1.4535 16.3836 1.4345 16.0366 1.2825 15.7631C0.4655 14.1017 0 12.2824 0 10.5158C0 4.98448 3.9995 0 9.519 0ZM13.8605 9.18027C13.186 9.18027 12.6445 9.77967 12.6445 10.5263C12.6445 11.2624 13.186 11.8723 13.8605 11.8723C14.535 11.8723 15.0765 11.2624 15.0765 10.5263C15.0765 9.77967 14.535 9.18027 13.8605 9.18027ZM9.481 9.18027C8.816 9.16975 8.265 9.77967 8.265 10.5158C8.265 11.2624 8.8065 11.8618 9.481 11.8723C10.1555 11.8723 10.697 11.2624 10.697 10.5263C10.697 9.77967 10.1555 9.18027 9.481 9.18027ZM5.1015 9.18027C4.427 9.18027 3.8855 9.77967 3.8855 10.5263C3.8855 11.2624 4.4365 11.8723 5.1015 11.8723C5.776 11.8618 6.3175 11.2624 6.3175 10.5263C6.3175 9.77967 5.776 9.18027 5.1015 9.18027Z" fill="#8B8E95"/>
</svg>
