<svg width="37" height="31" viewBox="0 0 37 31" fill="none" xmlns="http://www.w3.org/2000/svg">
<path d="M19.8789 22.567C20.0956 22.7487 20.2173 22.995 20.2173 23.2518C20.2173 23.5086 20.0956 23.7549 19.8789 23.9366L18.4423 25.1475C16.923 26.4196 14.8628 27.134 12.7149 27.1334C10.5669 27.1328 8.50725 26.4174 6.98892 25.1445C5.47058 23.8716 4.61798 22.1454 4.61865 20.3458C4.61933 18.5462 5.47324 16.8205 6.99253 15.5484L10.4786 12.6276C11.9379 11.404 13.9002 10.6938 15.9639 10.6425C18.0276 10.5912 20.0367 11.2026 21.5801 12.3515C21.694 12.4361 21.7868 12.5387 21.8534 12.6534C21.92 12.768 21.9589 12.8926 21.9681 13.0199C21.9772 13.1472 21.9563 13.2747 21.9066 13.3952C21.8569 13.5158 21.7793 13.6269 21.6784 13.7223C21.5774 13.8177 21.455 13.8955 21.3181 13.9513C21.1812 14.0071 21.0326 14.0397 20.8807 14.0474C20.7287 14.055 20.5765 14.0375 20.4326 13.9959C20.2888 13.9542 20.1561 13.8893 20.0423 13.8047C18.9399 12.9845 17.5053 12.5481 16.0317 12.5848C14.5581 12.6215 13.157 13.1285 12.1147 14.002L8.62863 16.9192C7.54421 17.8278 6.93499 19.06 6.93499 20.3449C6.93499 21.6298 7.54421 22.8621 8.62863 23.7707C9.71304 24.6792 11.1838 25.1897 12.7174 25.1897C14.251 25.1897 15.7218 24.6792 16.8062 23.7707L18.2428 22.567C18.3502 22.4769 18.4778 22.4055 18.6181 22.3567C18.7585 22.308 18.9089 22.2829 19.0609 22.2829C19.2128 22.2829 19.3633 22.308 19.5037 22.3567C19.644 22.4055 19.7716 22.4769 19.8789 22.567ZM30.0077 5.85607C28.4882 4.58582 26.4293 3.87244 24.2828 3.87244C22.1363 3.87244 20.0774 4.58582 18.5579 5.85607L17.1213 7.06095C16.9045 7.24273 16.7828 7.48921 16.7829 7.74616C16.7831 8.00312 16.905 8.24951 17.122 8.43113C17.339 8.61274 17.6331 8.71471 17.9398 8.7146C18.2465 8.71448 18.5406 8.6123 18.7574 8.43052L20.194 7.22685C21.2784 6.31829 22.7492 5.80786 24.2828 5.80786C25.8164 5.80786 27.2872 6.31829 28.3716 7.22685C29.456 8.13541 30.0652 9.36769 30.0652 10.6526C30.0652 11.9375 29.456 13.1698 28.3716 14.0783L24.8855 17.0015C23.8427 17.8746 22.4412 18.3809 20.9676 18.4169C19.4941 18.4529 18.0597 18.0159 16.958 17.1953C16.728 17.0244 16.4264 16.9371 16.1196 16.9526C15.8127 16.968 15.5258 17.0849 15.3219 17.2776C15.1179 17.4703 15.0137 17.723 15.0322 17.9801C15.0506 18.2371 15.1902 18.4776 15.4201 18.6484C16.9632 19.7977 18.972 20.4095 21.0357 20.3586C23.0994 20.3077 25.0619 19.598 26.5216 18.3747L30.0077 15.454C31.5247 14.1808 32.3767 12.4552 32.3767 10.6562C32.3767 8.8572 31.5247 7.1317 30.0077 5.85849V5.85607Z" fill="#76777E"/>
</svg>
