<svg width="57" height="58" viewBox="0 0 57 58" fill="none" xmlns="http://www.w3.org/2000/svg">
<path d="M28.5 0C44.2406 0 57 12.9833 57 29C57 45.0167 44.2406 58 28.5 58C23.4634 58.0082 18.5155 56.652 14.1645 54.0705L0.0114401 58L3.86464 43.5928C1.32555 39.1641 -0.00837437 34.1272 3.95587e-05 29C3.95587e-05 12.9833 12.7595 0 28.5 0ZM18.7872 15.37L18.2172 15.3932C17.8482 15.4161 17.4876 15.5147 17.157 15.6832C16.8479 15.8613 16.5656 16.084 16.3191 16.3444C15.9771 16.6721 15.7833 16.9563 15.5753 17.2318C14.5211 18.6264 13.9536 20.3386 13.9622 22.098C13.9679 23.519 14.3327 24.9023 14.9027 26.1957C16.0683 28.8115 17.9864 31.581 20.5172 34.1475C21.1271 34.7652 21.7256 35.3858 22.3697 35.9629C25.5143 38.7801 29.2617 40.8118 33.3137 41.8963L34.9325 42.1486C35.4597 42.1776 35.987 42.137 36.5171 42.1109C37.3471 42.0673 38.1576 41.8386 38.8911 41.441C39.2643 41.2454 39.6286 41.0325 39.9827 40.803C39.9827 40.803 40.1052 40.7218 40.3389 40.542C40.7237 40.252 40.9602 40.0461 41.2794 39.7068C41.516 39.4574 41.7212 39.1645 41.8779 38.831C42.1002 38.3583 42.3225 37.4564 42.4137 36.7053C42.4821 36.1311 42.4622 35.8179 42.4536 35.6236C42.4422 35.3133 42.1886 34.9914 41.9121 34.8551L40.2534 34.0982C40.2534 34.0982 37.7739 32.9991 36.2577 32.2973C36.0991 32.2268 35.9291 32.1865 35.7561 32.1784C35.5611 32.158 35.3641 32.1803 35.1783 32.2439C34.9925 32.3074 34.8222 32.4106 34.6788 32.5467C34.6646 32.5409 34.4736 32.7062 32.4131 35.2466C32.2948 35.4083 32.1319 35.5305 31.9451 35.5976C31.7583 35.6648 31.5561 35.6738 31.3643 35.6236C31.1786 35.5729 30.9967 35.509 30.8199 35.4322C30.4665 35.2814 30.344 35.2234 30.1017 35.119C28.466 34.3927 26.9516 33.4113 25.613 32.2103C25.2539 31.8913 24.9204 31.5433 24.5784 31.2069C23.4572 30.1142 22.48 28.8782 21.6714 27.5297L21.5033 27.2542C21.3825 27.0691 21.2848 26.8694 21.2126 26.6597C21.1043 26.2334 21.3864 25.8912 21.3864 25.8912C21.3864 25.8912 22.079 25.1198 22.401 24.7022C22.7145 24.2962 22.9796 23.9018 23.1506 23.6205C23.4869 23.0695 23.5923 22.504 23.4156 22.0661C22.6176 20.0825 21.7911 18.1076 20.9418 16.1472C20.7737 15.7586 20.2749 15.4802 19.8218 15.4251C19.6679 15.4077 19.514 15.3903 19.3601 15.3787C18.9773 15.3593 18.5938 15.3632 18.2115 15.3903L18.7844 15.3671L18.7872 15.37Z" fill="#B8B6B7"/>
</svg>
