<svg width="32" height="34" viewBox="0 0 32 34" fill="none" xmlns="http://www.w3.org/2000/svg">
<path d="M22.4883 3.8184e-06C23.243 -0.00168462 23.8398 0.556766 23.8416 1.30137L23.8433 2.57057C28.7405 2.9361 31.9754 6.11419 31.9807 10.9879L32 25.2538C32.007 30.5676 28.5018 33.837 22.8832 33.8455L9.15892 33.8624C3.57547 33.8692 0.0263523 30.5219 0.0193313 25.1929L1.1782e-05 11.0946C-0.00699739 6.18865 3.11384 3.01903 8.01098 2.59088L8.00923 1.32167C8.00747 0.577073 8.5867 0.0169304 9.35901 0.0169304C10.1313 0.0152381 10.7106 0.573689 10.7123 1.31829L10.7141 2.50288L21.1403 2.48934L21.1385 1.30475C21.1367 0.56015 21.716 0.00169993 22.4883 3.8184e-06ZM23.2044 24.0286H23.1869C22.3795 24.0472 21.7318 24.692 21.7493 25.4704C21.7511 26.2489 22.4023 26.8902 23.2097 26.9072C24.0329 26.9055 24.6999 26.2607 24.6981 25.4654C24.6981 24.67 24.0294 24.0286 23.2044 24.0286ZM8.74117 24.0303C7.93375 24.0641 7.30186 24.7089 7.30361 25.4873C7.34048 26.2658 8.00747 26.875 8.81489 26.8395C9.6065 26.8056 10.2366 26.1609 10.1998 25.3824C10.1822 24.6209 9.53103 24.0286 8.74117 24.0303ZM15.9728 24.0218C15.1654 24.0574 14.5352 24.7004 14.5352 25.4789C14.5721 26.2573 15.2391 26.8649 16.0465 26.831C16.8364 26.7955 17.4683 26.1524 17.4314 25.3723C17.4139 24.6124 16.7627 24.0201 15.9728 24.0218ZM8.73239 17.9381C7.92498 17.972 7.29484 18.6167 7.29659 19.3952C7.3317 20.1736 8.00045 20.7828 8.80787 20.7473C9.59773 20.7134 10.2279 20.0687 10.191 19.2902C10.1735 18.5287 9.52401 17.9364 8.73239 17.9381ZM15.9658 17.8789C15.1584 17.9127 14.5265 18.5575 14.5282 19.3359C14.5633 20.1144 15.2321 20.7219 16.0395 20.6881C16.8294 20.6525 17.4595 20.0095 17.4244 19.231C17.4051 18.4695 16.7556 17.8772 15.9658 17.8789ZM23.1974 17.8873C22.39 17.9043 21.7581 18.5304 21.7598 19.3089V19.3275C21.7774 20.1059 22.4444 20.6965 23.2536 20.6796C24.0434 20.661 24.6736 20.0162 24.656 19.2378C24.6192 18.4932 23.9855 17.8857 23.1974 17.8873ZM21.1438 5.09545L10.7176 5.10898L10.7193 6.47803C10.7193 7.2074 10.1419 7.78278 9.36955 7.78278C8.59724 7.78447 8.01625 7.21079 8.01625 6.48142L8.01449 5.17837C4.59176 5.50498 2.69784 7.42063 2.7031 11.0912L2.70486 11.6175L29.2793 11.5836V10.9913C29.2039 7.35294 27.2871 5.44405 23.8468 5.15975L23.8486 6.4628C23.8486 7.19048 23.2536 7.76755 22.4988 7.76755C21.7265 7.76924 21.1455 7.19387 21.1455 6.46619L21.1438 5.09545Z" fill="#8B8E95"/>
</svg>
