<svg width="89" height="89" viewBox="0 0 89 89" fill="none" xmlns="http://www.w3.org/2000/svg">
<g opacity="0.7">
<path d="M29.0475 49.6535C34.2763 49.6535 38.4667 53.8847 38.4667 59.1505V71.7922C38.4667 77.021 34.2763 81.2856 29.0475 81.2856H16.5133C11.3217 81.2856 7.09418 77.021 7.09418 71.7922V59.1505C7.09418 53.8847 11.3217 49.6535 16.5133 49.6535H29.0475ZM71.842 49.6535C77.0337 49.6535 81.2612 53.8847 81.2612 59.1505V71.7922C81.2612 77.021 77.0337 81.2856 71.842 81.2856H59.3079C54.0791 81.2856 49.8887 77.021 49.8887 71.7922V59.1505C49.8887 53.8847 54.0791 49.6535 59.3079 49.6535H71.842ZM29.0475 7.12C34.2763 7.12 38.4667 11.3846 38.4667 16.617V29.2588C38.4667 34.5246 34.2763 38.7521 29.0475 38.7521H16.5133C11.3217 38.7521 7.09418 34.5246 7.09418 29.2588V16.617C7.09418 11.3846 11.3217 7.12 16.5133 7.12H29.0475ZM71.842 7.12C77.0337 7.12 81.2612 11.3846 81.2612 16.617V29.2588C81.2612 34.5246 77.0337 38.7521 71.842 38.7521H59.3079C54.0791 38.7521 49.8887 34.5246 49.8887 29.2588V16.617C49.8887 11.3846 54.0791 7.12 59.3079 7.12H71.842Z" fill="#FFFDFD"/>
</g>
</svg>
